# xmcd
#
# Track frame offsets:
#	150
#	20795
#	34435
#	53367
#	80165
#	101622
#	122242
#	146011
#	172941
#	189400
#	209437
#	226970
#	249570
#	267606
#	285396
#	318020
#
# Disc length: 4512 seconds
#
# Revision: 1
# Processed by: cddbd v1.4PL0 Copyright (c) Steve Scherf et al.
# Submitted via: audiograbber 1.81.02
#
DISCID=e5119e10
DTITLE=Sting - Love Ballads
DYEAR=2002
DGENRE=Other
TTITLE0=Fragile
TTITLE1=A thousand years
TTITLE2=Perfect love... gone wrong
TTITLE3=A thousand years
TTITLE4=Desert rose
TTITLE5=Shape of my heart
TTITLE6=La belle dame sans regretts
TTITLE7=When we dance
TTITLE8=Fields of gold
TTITLE9=Englishman in NEW YORK
TTITLE10=Mad about you
TTITLE11=It`s probably me
TTITLE12=Moon over bourbon
TTITLE13=Russians
TTITLE14=They danca Alone (cueca solo)
TTITLE15=If i ever lose my faith in you
EXTD=
EXTT0=
EXTT1=
EXTT2=
EXTT3=
EXTT4=
EXTT5=
EXTT6=
EXTT7=
EXTT8=
EXTT9=
EXTT10=
EXTT11=
EXTT12=
EXTT13=
EXTT14=
EXTT15=
PLAYORDER=
